<svg xmlns="http://www.w3.org/2000/svg" width="276.885" height="48.597" viewBox="0 0 276.885 48.597">
  <g id="Layer_2" data-name="Layer 2" transform="translate(0.015)">
    <g id="Layer_1" data-name="Layer 1" transform="translate(-0.015)">
      <path id="Path_1" data-name="Path 1" d="M48.815,12.853H62.277c5.295,0,9.319,2.453,9.319,8.152v15.81c0,5.7-4.024,8.436-9.319,8.436H51.149c-5.295,0-9.319-2.737-9.319-8.436V1.68Zm0,21.793c0,3.066,1.675,4.128,4.577,4.128h6.985c2.513,0,4.293-1.062,4.293-4.128V23.518c0-3.739-2.513-4.128-5.19-4.128H48.815Z" transform="translate(20.759 0.833)" fill="#fff"/>
      <path id="Path_2" data-name="Path 2" d="M65.09,33.112V28.924c0-5.7,4.024-8.152,9.333-8.152H88v-.957c0-3.126-1.675-4.188-4.248-4.188H65.539V9.15H85.657c5.31,0,9.319,2.453,9.319,8.152v15.81c0,5.7-4.009,8.436-9.319,8.436H74.423C69.114,41.548,65.09,38.841,65.09,33.112ZM88,30.21V27.219H76.218c-2.244,0-4.143.778-4.143,3.246v1.062c0,2.737,1.63,3.515,4.143,3.515H83.7c2.962.03,4.308-1.2,4.308-4.831Z" transform="translate(32.29 4.536)" fill="#fff"/>
      <path id="Path_3" data-name="Path 3" d="M113.21,41.553h-6.985V19.819c0-3.126-1.795-4.128-4.248-4.128h-1.795c-2.9,0-4.577,1.062-4.577,4.128V41.553H88.62V17.306c0-5.7,4.024-8.152,9.333-8.152h5.026c3.739,0,5.983,1.795,6.7,3.575a7.165,7.165,0,0,1,6.656-3.575h5.026c5.31,0,9.319,2.513,9.319,8.212V41.553h-6.97V19.819c0-3.066-1.675-4.128-4.248-4.128h-1.855c-2.8,0-4.487,1.062-4.487,4.083Z" transform="translate(43.955 4.531)" fill="#fff"/>
      <path id="Path_4" data-name="Path 4" d="M127.465,12.853h13.462c5.31,0,9.319,2.453,9.319,8.152v15.81c0,5.7-4.009,8.436-9.319,8.436H129.813c-5.31,0-9.333-2.737-9.333-8.436V1.68Zm0,21.793c0,3.066,1.675,4.128,4.577,4.128h6.985c2.513,0,4.293-1.062,4.293-4.128V23.518c0-3.739-2.513-4.128-5.19-4.128H127.465Z" transform="translate(59.75 0.833)" fill="#fff"/>
      <path id="Path_5" data-name="Path 5" d="M151.315,30.943c0,3.066,1.675,4.128,4.592,4.128h6.925c2.513,0,4.248-1.062,4.248-4.128V9.15h6.97V33.082c0,5.7-4.024,8.436-9.319,8.436H153.664c-5.31,0-9.333-2.737-9.333-8.436V9.15h6.985Z" transform="translate(71.573 4.536)" fill="#fff"/>
      <path id="Path_6" data-name="Path 6" d="M167.619,41.548V35.071h15.152c2.513,0,4.128-.838,4.128-3.635,0-2.348-1.9-3.126-4.128-3.126h-6.1c-5.744,0-9.319-3.186-9.319-9.049V17.3c0-5.7,4.024-8.152,9.319-8.152h16.708v6.536H178.419c-2.288,0-4.068.733-4.068,3.126s1.84,2.992,4.068,2.992h6.088c5.31,0,9.393,2.453,9.393,8.152v3.126c0,5.7-4.083,8.436-9.393,8.436Z" transform="translate(82.986 4.536)" fill="#fff"/>
      <path id="Path_7" data-name="Path 7" d="M24.313,0a23.827,23.827,0,0,0-6.357.868l.927,11.413a1.212,1.212,0,0,1-1.107,1.3l-5.31.449a1.212,1.212,0,0,1-1.3-1.107l-.688-8.556a24.306,24.306,0,0,0,3.485,42l-2.5-29.586A1.2,1.2,0,0,1,12.572,15.5l5.385-.464a1.227,1.227,0,0,1,1.3,1.107l2.737,32.353c.793,0,1.585.1,2.393.1A24.306,24.306,0,0,0,24.313,0Zm-1.5,29.421a13.462,13.462,0,0,1,10.1,10.007A13.252,13.252,0,0,1,22.847,29.421Zm0-3.231s10.829-7.254,22.212,0a20.821,20.821,0,0,1-22.182,0Z" transform="translate(0.015)" fill="#fff"/>
    </g>
  </g>
</svg>
